<?xml version="1.0" encoding="UTF-8"?>
<svg id="Layer_1" data-name="Layer 1" xmlns="http://www.w3.org/2000/svg" version="1.1" viewBox="0 0 1109.7 268.1">
  <defs>
    <style>
      .cls-1 {
        fill: #fff;
      }

      .cls-1, .cls-2 {
        stroke-width: 0px;
      }

      .cls-2 {
        fill: #ff6700;
      }
    </style>
  </defs>
  <g>
    <path class="cls-2" d="M217.4,157.8l-50.8,50.8c-1.5,1.5-3.9,1.5-5.3,0l-31.1-31.1c-1.5-1.5-1.5-3.9,0-5.3l29-29c.7-.7,1.1-1.7,1.1-2.7V14.7c0-2.1,1.7-3.8,3.8-3.8h50.7c2.1,0,3.8,1.7,3.8,3.8v140.5c0,1-.5,1.9-1.2,2.6ZM74.1,143.3l76.3,76.3c1.5,1.5,1.5,3.9,0,5.3l-31.1,31.1c-1.5,1.5-3.9,1.5-5.3,0L15.9,157.8c-.7-.7-1.1-1.7-1.1-2.7V14.7c0-2.1,1.7-3.8,3.8-3.8h50.7c2.1,0,3.8,1.7,3.8,3.8v125.9c-.1,1,.3,2,1,2.7Z"/>
    <path class="cls-2" d="M104.8,12.6l-18.9,25.3c-.8,1.1,0,2.7,1.4,2.7h16.4c.9,0,1.7.8,1.7,1.7v106.1c0,.4.2.9.5,1.2l12.5,13.1c.7.7,1.8.7,2.4,0l12.7-13.1c.3-.3.5-.7.5-1.2V13.6c0-.9-.8-1.7-1.7-1.7h-26.1c-.4,0-.9.3-1.4.7Z"/>
  </g>
  <g>
    <path class="cls-1" d="M284.1,119l17.8-17.8c.4-.4,1-.4,1.4,0l11.1,11.1c.4.4.4,1,0,1.4l-10.3,10.3c-.2.2-.3.4-.3.7v38.6c0,.5-.4,1-1,1h-18c-.5,0-1-.4-1-1v-43.6c0-.3.3-.5.3-.7ZM333,154.3h-22.6c-.5,0-1-.4-1-1v-18.1c0-.5.4-1,1-1h22.6c.5,0,1-.4,1-1v-8.6c0-.3-.1-.5-.3-.7l-26.5-26.5c-.4-.4-.4-1,0-1.4l11.1-11.1c.4-.4,1-.4,1.4,0l34,34c.2.2.3.4.3.7v43.6c0,.5-.4,1-1,1h-18.1c-.5,0-1-.4-1-1v-8c.1-.4-.4-.9-.9-.9Z"/>
    <path class="cls-1" d="M373.6,84.7l-13.8,18c-.5.6,0,1.6.8,1.6h12.3c.5,0,1,.4,1,1v58.1c0,.5.4,1,1,1h18.1c.5,0,1-.4,1-1v-78.1c0-.5-.4-1-1-1h-18.5c-.4,0-.7,0-.9.4Z"/>
    <path class="cls-1" d="M425,119.3h48.1c.5,0,1,.4,1,1v18.1c0,.5-.4,1-1,1h-48.1c-.5,0-1-.4-1-1v-18.1c0-.6.5-1,1-1Z"/>
    <path class="cls-1" d="M523,124.3h-18.1c-.5,0-1-.4-1-1v-28.1c0-.5.4-1,1-1h18.1c.5,0,1,.4,1,1v28.1c0,.6-.4,1-1,1ZM523,129.3c.5,0,.9.4,1,.9.2,3.7,1.7,7,4.4,9.7,2.9,2.9,6.5,4.4,10.6,4.4s7.7-1.5,10.6-4.4c2.7-2.7,4.2-5.9,4.4-9.7,0-.5.5-.9,1-.9h18.1c.5,0,1,.4,1,1-.2,9.2-3.6,17.2-10.2,23.8-6.8,6.8-15.1,10.3-24.8,10.3s-17.9-3.4-24.8-10.3c-6.6-6.6-10-14.5-10.2-23.8,0-.5.4-1,1-1h17.9ZM573,124.3h-18c-.5,0-1-.4-1-1v-28.1c0-.5.4-1,1-1h18c.5,0,1,.4,1,1v28.1c0,.6-.4,1-1,1Z"/>
    <path class="cls-1" d="M586.2,83.9l68.1,68.1c.2.2.3.4.3.7v22.2c0,.9-1.1,1.3-1.7.7l-68.1-68.1c-.2-.2-.3-.4-.3-.7v-22.2c0-.8,1-1.3,1.7-.7ZM584.5,163.3v-46.2c0-.9,1.1-1.3,1.7-.7l18.1,18.1c.2.2.3.4.3.7v28.1c0,.5-.4,1-1,1h-18.1c-.5,0-1-.4-1-1h0ZM654.5,95.3v46.1c0,.9-1.1,1.3-1.7.7l-18-18.1c-.2-.2-.3-.4-.3-.7v-28.1c0-.5.4-1,1-1h18.1c.4.1.9.5.9,1.1Z"/>
    <path class="cls-1" d="M684,164.3h-18.1c-.5,0-1-.4-1-1v-68.1c0-.5.4-1,1-1h18.1c.5,0,1,.4,1,1v68.1c0,.6-.5,1-1,1Z"/>
    <path class="cls-1" d="M696.3,94.3h68.1c.5,0,1,.4,1,1v18.1c0,.5-.4,1-1,1h-68.1c-.5,0-1-.4-1-1v-18.1c0-.6.5-1,1-1ZM715.3,120.3v43.1c0,.5-.4,1-1,1h-18.1c-.5,0-1-.4-1-1v-43.1c0-.5.4-1,1-1h18.1c.5,0,1,.4,1,1ZM721.3,119.3h33.1c.5,0,1,.4,1,1v18.1c0,.5-.4,1-1,1h-33.1c-.5,0-1-.4-1-1v-18.1c0-.6.5-1,1-1Z"/>
    <path class="cls-1" d="M811.2,145.3v18.1c0,.5-.4,1-1,1-9.2-.2-17.2-3.6-23.8-10.2-6.8-6.8-10.3-15.1-10.3-24.8s3.4-17.9,10.3-24.8c6.6-6.6,14.5-10,23.8-10.2.5,0,1,.4,1,1v18.1c0,.5-.4.9-.9,1-3.7.2-7,1.7-9.7,4.4-2.9,2.9-4.4,6.5-4.4,10.6s1.5,7.7,4.4,10.6c2.7,2.7,5.9,4.2,9.7,4.4.5-.2.9.2.9.8h0ZM816.2,145.3c0-.5.4-.9.9-1,3.7-.2,7-1.7,9.7-4.4,2.9-2.9,4.4-6.5,4.4-10.6s-1.5-7.7-4.4-10.6c-2.7-2.7-5.9-4.2-9.7-4.4-.5,0-.9-.5-.9-1v-18.1c0-.5.4-1,1-1,9.2.2,17.2,3.6,23.8,10.2,6.8,6.8,10.3,15.1,10.3,24.8s-3.4,17.9-10.3,24.8c-6.6,6.6-14.5,10-23.8,10.2-.5,0-1-.4-1-1v-17.9Z"/>
    <path class="cls-1" d="M881.8,115.3v48.1c0,.5-.4,1-1,1h-18.1c-.5,0-1-.4-1-1v-68.1c0-.5.4-1,1-1h28.1c.5,0,1,.4,1,1v18.1c0,.5-.4,1-1,1h-8c-.6,0-1,.3-1,.9ZM912.8,162l20.6,20.6c.6.6.2,1.7-.7,1.7h-25.5c-.3,0-.5-.1-.7-.3l-19.5-19.4c-.2-.2-.3-.4-.3-.7v-18.6c0-.5.4-1,1-1h9c4.1,0,7.7-1.5,10.6-4.4s4.4-6.5,4.4-10.6-1.5-7.7-4.4-10.6c-2.7-2.7-5.9-4.2-9.7-4.4-.5,0-.9-.5-.9-1v-18.1c0-.5.4-1,1-1,9.2.2,17.2,3.6,23.8,10.2,9.9,9.9,12.6,22.7,8.3,38.4,0,.1,0,.2,0,.2-4.6,8-10.2,13.8-16.7,17.3-.7.5-.8,1.3-.2,1.7h0Z"/>
    <path class="cls-1" d="M981.5,156.1l-39-39c-.2-.2-.3-.4-.3-.7v-22.2c0-.9,1.1-1.3,1.7-.7l37.7,37.7c.4.4,1,.4,1.4,0l37.7-37.7c.6-.6,1.7-.2,1.7.7v22.2c0,.3,0,.5-.3.7l-39,39c-.6.4-1.2.4-1.6,0h0ZM942.2,163.3v-36.7c0-.9,1.1-1.3,1.7-.7l18.1,18.1c.2.2.3.4.3.7v18.6c0,.5-.4,1-1,1h-18.1c-.6,0-1-.4-1-1h0ZM1021.2,164.3h-18.1c-.5,0-1-.4-1-1v-18.6c0-.3,0-.5.3-.7l18.1-18.1c.6-.6,1.7-.2,1.7.7v36.7c0,.6-.4,1-1,1Z"/>
    <path class="cls-1" d="M1082.6,119.4c6.2,0,11.5,2.2,15.9,6.6,4.4,4.4,6.6,9.7,6.6,15.9s-2.2,11.5-6.6,15.9-9.7,6.6-15.9,6.6h-11.5c-.6,0-1-.4-1-1v-18c0-.6.4-1,1-1h11.5c.7,0,1.3-.2,1.8-.7s.7-1.1.7-1.8-.2-1.3-.7-1.8-1.1-.7-1.8-.7h-25c-6.2,0-11.5-2.2-15.9-6.6-4.4-4.4-6.6-9.7-6.6-15.9s2.2-11.5,6.6-15.9,9.7-6.6,15.9-6.6h11.5c.6,0,1,.4,1,1v18c0,.6-.4,1-1,1h-11.5c-.7,0-1.3.2-1.8.7s-.7,1.1-.7,1.8.2,1.3.7,1.8,1.1.7,1.8.7h25ZM1064.1,164.4h-28c-.6,0-1-.4-1-1v-18c0-.6.4-1,1-1h28c.6,0,1,.4,1,1v18c0,.6-.5,1-1,1ZM1076.1,94.3h28c.6,0,1,.4,1,1v18c0,.6-.4,1-1,1h-28c-.6,0-1-.4-1-1v-18c0-.5.5-1,1-1Z"/>
  </g>
</svg>