<?xml version="1.0" encoding="UTF-8"?>
<svg id="Layer_1" data-name="Layer 1" xmlns="http://www.w3.org/2000/svg" viewBox="0 0 192 192">
  <defs>
    <style>
      .cls-1 {
        fill: #ff6700;
        stroke-width: 0px;
      }
    </style>
  </defs>
  <path class="cls-1" d="M152.51,109.34l-28.5,28.5c-.84.84-2.19.84-2.97,0l-17.45-17.45c-.84-.84-.84-2.19,0-2.97l16.27-16.27c.39-.39.62-.95.62-1.51V29.07c0-1.18.95-2.13,2.13-2.13h28.44c1.18,0,2.13.95,2.13,2.13v78.81c-.06.56-.28,1.07-.67,1.46ZM72.08,101.21l42.8,42.8c.84.84.84,2.19,0,2.97l-17.45,17.45c-.84.84-2.19.84-2.97,0l-55.03-55.08c-.39-.39-.62-.95-.62-1.51V29.07c0-1.18.95-2.13,2.13-2.13h28.44c1.18,0,2.13.95,2.13,2.13v70.62c-.06.56.17,1.12.56,1.51Z"/>
  <path class="cls-1" d="M89.35,27.9l-10.6,14.19c-.45.62,0,1.51.79,1.51h9.2c.5,0,.95.45.95.95v59.52c0,.22.11.5.28.67l7.01,7.35c.39.39,1.01.39,1.35,0l7.12-7.35c.17-.17.28-.39.28-.67V28.46c0-.5-.45-.95-.95-.95h-14.64c-.28,0-.56.17-.79.39Z"/>
</svg>