<?xml version="1.0" encoding="utf-8"?>
<!-- Generator: Adobe Illustrator 28.3.0, SVG Export Plug-In . SVG Version: 6.00 Build 0)  -->
<svg version="1.1" id="Layer_1" xmlns="http://www.w3.org/2000/svg" xmlns:xlink="http://www.w3.org/1999/xlink" x="0px" y="0px"
	 viewBox="0 0 1109.7 268.1" style="enable-background:new 0 0 1109.7 268.1;" xml:space="preserve">
<style type="text/css">
	.st0{fill:#FF6700;}
</style>
<g>
	<path class="st0" d="M217.4,157.8l-50.8,50.8c-1.5,1.5-3.9,1.5-5.3,0l-31.1-31.1c-1.5-1.5-1.5-3.9,0-5.3l29-29
		c0.7-0.7,1.1-1.7,1.1-2.7V14.7c0-2.1,1.7-3.8,3.8-3.8h50.7c2.1,0,3.8,1.7,3.8,3.8v140.5C218.5,156.2,218.1,157.1,217.4,157.8z
		 M74.1,143.3l76.3,76.3c1.5,1.5,1.5,3.9,0,5.3L119.3,256c-1.5,1.5-3.9,1.5-5.3,0l-98.1-98.2c-0.7-0.7-1.1-1.7-1.1-2.7V14.7
		c0-2.1,1.7-3.8,3.8-3.8h50.7c2.1,0,3.8,1.7,3.8,3.8v125.9C73,141.6,73.4,142.6,74.1,143.3z"/>
	<path class="st0" d="M104.8,12.6L85.9,37.9c-0.8,1.1,0,2.7,1.4,2.7h16.4c0.9,0,1.7,0.8,1.7,1.7v106.1c0,0.4,0.2,0.9,0.5,1.2
		l12.5,13.1c0.7,0.7,1.8,0.7,2.4,0l12.7-13.1c0.3-0.3,0.5-0.7,0.5-1.2V13.6c0-0.9-0.8-1.7-1.7-1.7h-26.1
		C105.8,11.9,105.3,12.2,104.8,12.6z"/>
</g>
<g>
	<path d="M284.1,119l17.8-17.8c0.4-0.4,1-0.4,1.4,0l11.1,11.1c0.4,0.4,0.4,1,0,1.4L304.1,124c-0.2,0.2-0.3,0.4-0.3,0.7v38.6
		c0,0.5-0.4,1-1,1h-18c-0.5,0-1-0.4-1-1v-43.6C283.9,119.4,284.1,119.2,284.1,119z M333,154.3h-22.6c-0.5,0-1-0.4-1-1v-18.1
		c0-0.5,0.4-1,1-1H333c0.5,0,1-0.4,1-1v-8.6c0-0.3-0.1-0.5-0.3-0.7l-26.5-26.5c-0.4-0.4-0.4-1,0-1.4l11.1-11.1c0.4-0.4,1-0.4,1.4,0
		l34,34c0.2,0.2,0.3,0.4,0.3,0.7v43.6c0,0.5-0.4,1-1,1h-18.1c-0.5,0-1-0.4-1-1v-8C334,154.8,333.5,154.3,333,154.3z"/>
	<path d="M373.6,84.7l-13.8,18c-0.5,0.6,0,1.6,0.8,1.6h12.3c0.5,0,1,0.4,1,1v58.1c0,0.5,0.4,1,1,1H393c0.5,0,1-0.4,1-1V85.3
		c0-0.5-0.4-1-1-1h-18.5C374.1,84.3,373.8,84.4,373.6,84.7z"/>
	<path d="M425,119.3h48.1c0.5,0,1,0.4,1,1v18.1c0,0.5-0.4,1-1,1H425c-0.5,0-1-0.4-1-1v-18.1C424,119.7,424.5,119.3,425,119.3z"/>
	<path d="M523,124.3h-18.1c-0.5,0-1-0.4-1-1V95.2c0-0.5,0.4-1,1-1H523c0.5,0,1,0.4,1,1v28.1C524,123.9,523.6,124.3,523,124.3z
		 M523,129.3c0.5,0,0.9,0.4,1,0.9c0.2,3.7,1.7,7,4.4,9.7c2.9,2.9,6.5,4.4,10.6,4.4s7.7-1.5,10.6-4.4c2.7-2.7,4.2-5.9,4.4-9.7
		c0-0.5,0.5-0.9,1-0.9h18.1c0.5,0,1,0.4,1,1c-0.2,9.2-3.6,17.2-10.2,23.8c-6.8,6.8-15.1,10.3-24.8,10.3s-17.9-3.4-24.8-10.3
		c-6.6-6.6-10-14.5-10.2-23.8c0-0.5,0.4-1,1-1H523z M573,124.3H555c-0.5,0-1-0.4-1-1V95.2c0-0.5,0.4-1,1-1H573c0.5,0,1,0.4,1,1v28.1
		C574,123.9,573.6,124.3,573,124.3z"/>
	<path d="M586.2,83.9l68.1,68.1c0.2,0.2,0.3,0.4,0.3,0.7v22.2c0,0.9-1.1,1.3-1.7,0.7l-68.1-68.1c-0.2-0.2-0.3-0.4-0.3-0.7V84.6
		C584.5,83.8,585.5,83.3,586.2,83.9z M584.5,163.3v-46.2c0-0.9,1.1-1.3,1.7-0.7l18.1,18.1c0.2,0.2,0.3,0.4,0.3,0.7v28.1
		c0,0.5-0.4,1-1,1h-18.1C585,164.3,584.5,163.9,584.5,163.3L584.5,163.3z M654.5,95.3v46.1c0,0.9-1.1,1.3-1.7,0.7L634.8,124
		c-0.2-0.2-0.3-0.4-0.3-0.7V95.2c0-0.5,0.4-1,1-1h18.1C654,94.3,654.5,94.7,654.5,95.3z"/>
	<path d="M684,164.3h-18.1c-0.5,0-1-0.4-1-1V95.2c0-0.5,0.4-1,1-1H684c0.5,0,1,0.4,1,1v68.1C685,163.9,684.5,164.3,684,164.3z"/>
	<path d="M696.3,94.3h68.1c0.5,0,1,0.4,1,1v18.1c0,0.5-0.4,1-1,1h-68.1c-0.5,0-1-0.4-1-1V95.3C695.3,94.7,695.8,94.3,696.3,94.3z
		 M715.3,120.3v43.1c0,0.5-0.4,1-1,1h-18.1c-0.5,0-1-0.4-1-1v-43.1c0-0.5,0.4-1,1-1h18.1C714.8,119.3,715.3,119.7,715.3,120.3z
		 M721.3,119.3h33.1c0.5,0,1,0.4,1,1v18.1c0,0.5-0.4,1-1,1h-33.1c-0.5,0-1-0.4-1-1v-18.1C720.3,119.7,720.8,119.3,721.3,119.3z"/>
	<path d="M811.2,145.3v18.1c0,0.5-0.4,1-1,1c-9.2-0.2-17.2-3.6-23.8-10.2c-6.8-6.8-10.3-15.1-10.3-24.8s3.4-17.9,10.3-24.8
		c6.6-6.6,14.5-10,23.8-10.2c0.5,0,1,0.4,1,1v18.1c0,0.5-0.4,0.9-0.9,1c-3.7,0.2-7,1.7-9.7,4.4c-2.9,2.9-4.4,6.5-4.4,10.6
		s1.5,7.7,4.4,10.6c2.7,2.7,5.9,4.2,9.7,4.4C810.8,144.3,811.2,144.7,811.2,145.3L811.2,145.3z M816.2,145.3c0-0.5,0.4-0.9,0.9-1
		c3.7-0.2,7-1.7,9.7-4.4c2.9-2.9,4.4-6.5,4.4-10.6s-1.5-7.7-4.4-10.6c-2.7-2.7-5.9-4.2-9.7-4.4c-0.5,0-0.9-0.5-0.9-1V95.2
		c0-0.5,0.4-1,1-1c9.2,0.2,17.2,3.6,23.8,10.2c6.8,6.8,10.3,15.1,10.3,24.8s-3.4,17.9-10.3,24.8c-6.6,6.6-14.5,10-23.8,10.2
		c-0.5,0-1-0.4-1-1V145.3z"/>
	<path d="M881.8,115.3v48.1c0,0.5-0.4,1-1,1h-18.1c-0.5,0-1-0.4-1-1V95.3c0-0.5,0.4-1,1-1h28.1c0.5,0,1,0.4,1,1v18.1
		c0,0.5-0.4,1-1,1h-8C882.2,114.3,881.8,114.7,881.8,115.3z M912.8,162l20.6,20.6c0.6,0.6,0.2,1.7-0.7,1.7h-25.5
		c-0.3,0-0.5-0.1-0.7-0.3L887,164.6c-0.2-0.2-0.3-0.4-0.3-0.7v-18.6c0-0.5,0.4-1,1-1h9c4.1,0,7.7-1.5,10.6-4.4s4.4-6.5,4.4-10.6
		s-1.5-7.7-4.4-10.6c-2.7-2.7-5.9-4.2-9.7-4.4c-0.5,0-0.9-0.5-0.9-1V95.2c0-0.5,0.4-1,1-1c9.2,0.2,17.2,3.6,23.8,10.2
		c9.9,9.9,12.6,22.7,8.3,38.4c0,0.1-0.1,0.2-0.1,0.2c-4.6,8-10.2,13.8-16.7,17.3C912.3,160.8,912.2,161.6,912.8,162L912.8,162z"/>
	<path d="M981.5,156.1l-39-39c-0.2-0.2-0.3-0.4-0.3-0.7V94.2c0-0.9,1.1-1.3,1.7-0.7l37.7,37.7c0.4,0.4,1,0.4,1.4,0l37.7-37.7
		c0.6-0.6,1.7-0.2,1.7,0.7v22.2c0,0.3-0.1,0.5-0.3,0.7l-39,39C982.5,156.5,981.9,156.5,981.5,156.1L981.5,156.1z M942.2,163.3v-36.7
		c0-0.9,1.1-1.3,1.7-0.7L962,144c0.2,0.2,0.3,0.4,0.3,0.7v18.6c0,0.5-0.4,1-1,1h-18.1C942.6,164.3,942.2,163.9,942.2,163.3
		L942.2,163.3z M1021.2,164.3h-18.1c-0.5,0-1-0.4-1-1v-18.6c0-0.3,0.1-0.5,0.3-0.7l18.1-18.1c0.6-0.6,1.7-0.2,1.7,0.7v36.7
		C1022.2,163.9,1021.8,164.3,1021.2,164.3z"/>
	<g>
		<path d="M1082.6,119.4c6.2,0,11.5,2.2,15.9,6.6c4.4,4.4,6.6,9.7,6.6,15.9c0,6.2-2.2,11.5-6.6,15.9c-4.4,4.4-9.7,6.6-15.9,6.6
			h-11.5c-0.6,0-1-0.4-1-1v-18c0-0.6,0.4-1,1-1h11.5c0.7,0,1.3-0.2,1.8-0.7c0.5-0.5,0.7-1.1,0.7-1.8c0-0.7-0.2-1.3-0.7-1.8
			c-0.5-0.5-1.1-0.7-1.8-0.7h-25c-6.2,0-11.5-2.2-15.9-6.6c-4.4-4.4-6.6-9.7-6.6-15.9c0-6.2,2.2-11.5,6.6-15.9
			c4.4-4.4,9.7-6.6,15.9-6.6h11.5c0.6,0,1,0.4,1,1v18c0,0.6-0.4,1-1,1h-11.5c-0.7,0-1.3,0.2-1.8,0.7c-0.5,0.5-0.7,1.1-0.7,1.8
			s0.2,1.3,0.7,1.8c0.5,0.5,1.1,0.7,1.8,0.7H1082.6z M1064.1,164.4h-28c-0.6,0-1-0.4-1-1v-18c0-0.6,0.4-1,1-1h28c0.6,0,1,0.4,1,1v18
			C1065.1,164,1064.6,164.4,1064.1,164.4z M1076.1,94.3h28c0.6,0,1,0.4,1,1v18c0,0.6-0.4,1-1,1h-28c-0.6,0-1-0.4-1-1v-18
			C1075.1,94.8,1075.6,94.3,1076.1,94.3z"/>
	</g>
</g>
</svg>
