<?xml version="1.0" encoding="UTF-8"?>
<svg id="Layer_1" data-name="Layer 1" xmlns="http://www.w3.org/2000/svg" viewBox="0 0 1037.11 268.09">
  <defs>
    <style>
      .cls-1 {
        fill: #000;
      }

      .cls-1, .cls-2 {
        stroke-width: 0px;
      }

      .cls-2 {
        fill: #ff6700;
      }
    </style>
  </defs>
  <g>
    <path class="cls-2" d="M217.45,157.83l-50.8,50.8c-1.5,1.5-3.9,1.5-5.3,0l-31.1-31.1c-1.5-1.5-1.5-3.9,0-5.3l29-29c.7-.7,1.1-1.7,1.1-2.7V14.73c0-2.1,1.7-3.8,3.8-3.8h50.7c2.1,0,3.8,1.7,3.8,3.8v140.5c-.1,1-.5,1.9-1.2,2.6ZM74.05,143.33l76.3,76.3c1.5,1.5,1.5,3.9,0,5.3l-31.1,31.1c-1.5,1.5-3.9,1.5-5.3,0L15.85,157.83c-.7-.7-1.1-1.7-1.1-2.7V14.73c0-2.1,1.7-3.8,3.8-3.8h50.7c2.1,0,3.8,1.7,3.8,3.8v125.9c-.1,1,.3,2,1,2.7Z"/>
    <path class="cls-2" d="M104.85,12.63l-18.9,25.3c-.8,1.1,0,2.7,1.4,2.7h16.4c.9,0,1.7.8,1.7,1.7v106.1c0,.4.2.9.5,1.2l12.5,13.1c.7.7,1.8.7,2.4,0l12.7-13.1c.3-.3.5-.7.5-1.2V13.63c0-.9-.8-1.7-1.7-1.7h-26.1c-.5,0-1,.3-1.4.7Z"/>
  </g>
  <g>
    <path class="cls-1" d="M284.15,119.03l17.8-17.8c.4-.4,1-.4,1.4,0l11.1,11.1c.4.4.4,1,0,1.4l-10.3,10.3c-.2.2-.3.4-.3.7v38.6c0,.5-.4,1-1,1h-18c-.5,0-1-.4-1-1v-43.6c0-.3.2-.5.3-.7ZM332.95,154.33h-22.6c-.5,0-1-.4-1-1v-18.1c0-.5.4-1,1-1h22.6c.5,0,1-.4,1-1v-8.6c0-.3-.1-.5-.3-.7l-26.5-26.5c-.4-.4-.4-1,0-1.4l11.1-11.1c.4-.4,1-.4,1.4,0l34,34c.2.2.3.4.3.7v43.6c0,.5-.4,1-1,1h-18.1c-.5,0-1-.4-1-1v-8c.1-.4-.4-.9-.9-.9Z"/>
    <path class="cls-1" d="M373.65,84.73l-13.8,18c-.5.6,0,1.6.8,1.6h12.3c.5,0,1,.4,1,1v58.1c0,.5.4,1,1,1h18.1c.5,0,1-.4,1-1v-78.1c0-.5-.4-1-1-1h-18.5c-.4,0-.7.1-.9.4Z"/>
    <path class="cls-1" d="M424.95,119.33h48.1c.5,0,1,.4,1,1v18.1c0,.5-.4,1-1,1h-48.1c-.5,0-1-.4-1-1v-18.1c0-.6.5-1,1-1Z"/>
    <path class="cls-1" d="M523.05,124.33h-18.1c-.5,0-1-.4-1-1v-28.1c0-.5.4-1,1-1h18.1c.5,0,1,.4,1,1v28.1c0,.6-.4,1-1,1ZM523.05,129.33c.5,0,.9.4,1,.9.2,3.7,1.7,7,4.4,9.7,2.9,2.9,6.5,4.4,10.6,4.4s7.7-1.5,10.6-4.4c2.7-2.7,4.2-5.9,4.4-9.7,0-.5.5-.9,1-.9h18.1c.5,0,1,.4,1,1-.2,9.2-3.6,17.2-10.2,23.8-6.8,6.8-15.1,10.3-24.8,10.3s-17.9-3.4-24.8-10.3c-6.6-6.6-10-14.5-10.2-23.8,0-.5.4-1,1-1h17.9ZM573.05,124.33h-18.1c-.5,0-1-.4-1-1v-28.1c0-.5.4-1,1-1h18.1c.5,0,1,.4,1,1v28.1c0,.6-.4,1-1,1Z"/>
    <path class="cls-1" d="M586.15,83.93l68.1,68.1c.2.2.3.4.3.7v22.2c0,.9-1.1,1.3-1.7.7l-68.1-68.1c-.2-.2-.3-.4-.3-.7v-22.2c0-.8,1.1-1.3,1.7-.7ZM584.45,163.33v-46.2c0-.9,1.1-1.3,1.7-.7l18.1,18.1c.2.2.3.4.3.7v28.1c0,.5-.4,1-1,1h-18.1c-.5,0-1-.4-1-1ZM654.55,95.33v46.1c0,.9-1.1,1.3-1.7.7l-18.1-18.1c-.2-.2-.3-.4-.3-.7v-28.1c0-.5.4-1,1-1h18.1c.5.1,1,.5,1,1.1Z"/>
    <path class="cls-1" d="M683.95,164.33h-18.1c-.5,0-1-.4-1-1v-68.1c0-.5.4-1,1-1h18.1c.5,0,1,.4,1,1v68.1c0,.6-.5,1-1,1Z"/>
    <path class="cls-1" d="M696.35,94.33h68.1c.5,0,1,.4,1,1v18.1c0,.5-.4,1-1,1h-68.1c-.5,0-1-.4-1-1v-18.1c0-.6.4-1,1-1ZM715.35,120.33v43.1c0,.5-.4,1-1,1h-18.1c-.5,0-1-.4-1-1v-43.1c0-.5.4-1,1-1h18.1c.5,0,1,.4,1,1ZM721.35,119.33h33.1c.5,0,1,.4,1,1v18.1c0,.5-.4,1-1,1h-33.1c-.5,0-1-.4-1-1v-18.1c0-.6.4-1,1-1Z"/>
    <path class="cls-1" d="M811.25,145.33v18.1c0,.5-.4,1-1,1-9.2-.2-17.2-3.6-23.8-10.2-6.8-6.8-10.3-15.1-10.3-24.8s3.4-17.9,10.3-24.8c6.6-6.6,14.5-10,23.8-10.2.5,0,1,.4,1,1v18.1c0,.5-.4.9-.9,1-3.7.2-7,1.7-9.7,4.4-2.9,2.9-4.4,6.5-4.4,10.6s1.5,7.7,4.4,10.6c2.7,2.7,5.9,4.2,9.7,4.4.5-.2.9.2.9.8ZM816.25,145.33c0-.5.4-.9.9-1,3.7-.2,7-1.7,9.7-4.4,2.9-2.9,4.4-6.5,4.4-10.6s-1.5-7.7-4.4-10.6c-2.7-2.7-5.9-4.2-9.7-4.4-.5,0-.9-.5-.9-1v-18.1c0-.5.4-1,1-1,9.2.2,17.2,3.6,23.8,10.2,6.8,6.8,10.3,15.1,10.3,24.8s-3.4,17.9-10.3,24.8c-6.6,6.6-14.5,10-23.8,10.2-.5,0-1-.4-1-1v-17.9Z"/>
    <path class="cls-1" d="M881.75,115.33v48.1c0,.5-.4,1-1,1h-18.1c-.5,0-1-.4-1-1v-68.1c0-.5.4-1,1-1h28.1c.5,0,1,.4,1,1v18.1c0,.5-.4,1-1,1h-8c-.6-.1-1,.3-1,.9ZM912.75,162.03l20.6,20.6c.6.6.2,1.7-.7,1.7h-25.5c-.3,0-.5-.1-.7-.3l-19.4-19.4c-.2-.2-.3-.4-.3-.7v-18.6c0-.5.4-1,1-1h9c4.1,0,7.7-1.5,10.6-4.4s4.4-6.5,4.4-10.6-1.5-7.7-4.4-10.6c-2.7-2.7-5.9-4.2-9.7-4.4-.5,0-.9-.5-.9-1v-18.1c0-.5.4-1,1-1,9.2.2,17.2,3.6,23.8,10.2,9.9,9.9,12.6,22.7,8.3,38.4,0,.1-.1.2-.1.2-4.6,8-10.2,13.8-16.7,17.3-.7.5-.8,1.3-.3,1.7Z"/>
    <path class="cls-1" d="M981.45,156.13l-39-39c-.2-.2-.3-.4-.3-.7v-22.2c0-.9,1.1-1.3,1.7-.7l37.7,37.7c.4.4,1,.4,1.4,0l37.7-37.7c.6-.6,1.7-.2,1.7.7v22.2c0,.3-.1.5-.3.7l-39,39c-.6.4-1.2.4-1.6,0ZM942.15,163.33v-36.7c0-.9,1.1-1.3,1.7-.7l18.1,18.1c.2.2.3.4.3.7v18.6c0,.5-.4,1-1,1h-18.1c-.6,0-1-.4-1-1ZM1021.25,164.33h-18.1c-.5,0-1-.4-1-1v-18.6c0-.3.1-.5.3-.7l18.1-18.1c.6-.6,1.7-.2,1.7.7v36.7c-.1.6-.5,1-1,1Z"/>
  </g>
</svg>